<?xml version="1.0" encoding="UTF-8"?>
<svg width="28px" height="38px" viewBox="0 0 28 38" version="1.1" xmlns="http://www.w3.org/2000/svg" xmlns:xlink="http://www.w3.org/1999/xlink">
    <!-- Generator: Sketch 62 (91390) - https://sketch.com -->
    <title>logo</title>
    <desc>Created with Sketch.</desc>
    <g id="Symbols" stroke="none" stroke-width="1" fill="none" fill-rule="evenodd">
        <g id="Top-Nav/Light" transform="translate(-80.000000, -20.000000)" fill="#1F222C" fill-rule="nonzero">
            <g id="logo" transform="translate(80.000000, 20.000000)">
                <path d="M5.25,23.0084211 C2.170353,23.0084211 0,25.0833739 0,28.4084211 C0,33.3719098 5.56324433,37.8084211 13.35,37.8084211 C22.3384189,37.8084211 27.35,33.8388518 27.35,27.4084211 C27.35,22.4102835 22.0168119,18.0980584 14.2043313,16.9477545 L13.605036,16.8595147 L12.6605271,14.1491846 L10.2219791,18.9246745 C14.4303254,20.156328 17.15,23.5592535 17.15,27.1584211 C17.15,30.398288 15.4594041,32.2084211 12.55,32.2084211 C10.1058274,32.2084211 8,30.3833707 8,28.0084211 C8,26.7299247 8.73083812,25.7547702 9.85913606,25.4949459 C9.30045824,23.9570264 7.72432767,23.0084211 5.25,23.0084211 Z M16.75,5.00842105 C16.75,2.5607058 14.7977153,0.608421053 12.35,0.608421053 C9.88983789,0.608421053 7.9,2.57307112 7.9,5.00842105 C7.9,7.4561363 9.90228475,9.45842105 12.35,9.45842105 C14.7853499,9.45842105 16.75,7.46858316 16.75,5.00842105 Z" id="?"></path>
            </g>
        </g>
    </g>
</svg>